<svg class="svg-icon" style="width: 1em;height: 1em;vertical-align: middle;fill: currentColor;overflow: hidden;" viewBox="0 0 1024 1024" version="1.1" xmlns="http://www.w3.org/2000/svg"><path d="M938.666667 256a85.333333 85.333333 0 0 0-85.333334-85.333333H170.666667a85.333333 85.333333 0 0 0-85.333334 85.333333v512a85.333333 85.333333 0 0 0 85.333334 85.333333h682.666666a85.333333 85.333333 0 0 0 85.333334-85.333333z m-106.666667 512h-42.666667a21.333333 21.333333 0 0 1-21.333333-21.333333V357.12l-238.08 190.72A34.56 34.56 0 0 1 512 554.666667h-7.68a34.56 34.56 0 0 1-20.053333-6.826667L256 366.506667v380.16a21.333333 21.333333 0 0 1-21.333333 21.333333h-42.666667a21.333333 21.333333 0 0 1-21.333333-21.333333v-469.333334a21.333333 21.333333 0 0 1 21.333333-21.333333h47.36a42.666667 42.666667 0 0 1 26.453333 9.386667l240.213334 192 240.64-192a42.666667 42.666667 0 0 1 26.453333-9.386667h58.88a21.333333 21.333333 0 0 1 21.333333 21.333333v469.333334a21.333333 21.333333 0 0 1-21.333333 21.333333z"  /></svg>